<?xml version="1.0" encoding="utf-8" standalone="no"?>
<!DOCTYPE svg PUBLIC "-//W3C//DTD SVG 1.1//EN"
  "http://www.w3.org/Graphics/SVG/1.1/DTD/svg11.dtd">
<svg xmlns:xlink="http://www.w3.org/1999/xlink" width="864pt" height="504pt" viewBox="0 0 864 504" xmlns="http://www.w3.org/2000/svg" version="1.1">
 <metadata>
  <rdf:RDF xmlns:dc="http://purl.org/dc/elements/1.1/" xmlns:cc="http://creativecommons.org/ns#" xmlns:rdf="http://www.w3.org/1999/02/22-rdf-syntax-ns#">
   <cc:Work>
    <dc:type rdf:resource="http://purl.org/dc/dcmitype/StillImage"/>
    <dc:date>2023-09-02T15:56:48.694256</dc:date>
    <dc:format>image/svg+xml</dc:format>
    <dc:creator>
     <cc:Agent>
      <dc:title>Matplotlib v3.5.2, https://matplotlib.org/</dc:title>
     </cc:Agent>
    </dc:creator>
   </cc:Work>
  </rdf:RDF>
 </metadata>
 <defs>
  <style type="text/css">*{stroke-linejoin: round; stroke-linecap: butt}</style>
 </defs>
 <g id="figure_1">
  <g id="patch_1">
   <path d="M 0 504 
L 864 504 
L 864 0 
L 0 0 
z
" style="fill: #ffffff"/>
  </g>
  <g id="axes_1">
   <g id="patch_2">
    <path d="M 108 236.88 
L 777.6 236.88 
L 777.6 60.48 
L 108 60.48 
z
" style="fill: #eeeeee"/>
   </g>
   <g id="matplotlib.axis_1">
    <g id="xtick_1">
     <g id="line2d_1">
      <path d="M 138.436364 236.88 
L 138.436364 60.48 
" clip-path="url(#p603bbc2ed6)" style="fill: none; stroke-dasharray: 1.85,0.8; stroke-dashoffset: 0; stroke: #b2b2b2; stroke-width: 0.5"/>
     </g>
     <g id="line2d_2"/>
     <g id="text_1">
      <!-- 1990 -->
      <g style="fill: #262626" transform="translate(127.314489 247.537812)scale(0.1 -0.1)">
       <defs>
        <path id="ArialMT-31" d="M 2384 0 
L 1822 0 
L 1822 3584 
Q 1619 3391 1289 3197 
Q 959 3003 697 2906 
L 697 3450 
Q 1169 3672 1522 3987 
Q 1875 4303 2022 4600 
L 2384 4600 
L 2384 0 
z
" transform="scale(0.015625)"/>
        <path id="ArialMT-39" d="M 350 1059 
L 891 1109 
Q 959 728 1153 556 
Q 1347 384 1650 384 
Q 1909 384 2104 503 
Q 2300 622 2425 820 
Q 2550 1019 2634 1356 
Q 2719 1694 2719 2044 
Q 2719 2081 2716 2156 
Q 2547 1888 2255 1720 
Q 1963 1553 1622 1553 
Q 1053 1553 659 1965 
Q 266 2378 266 3053 
Q 266 3750 677 4175 
Q 1088 4600 1706 4600 
Q 2153 4600 2523 4359 
Q 2894 4119 3086 3673 
Q 3278 3228 3278 2384 
Q 3278 1506 3087 986 
Q 2897 466 2520 194 
Q 2144 -78 1638 -78 
Q 1100 -78 759 220 
Q 419 519 350 1059 
z
M 2653 3081 
Q 2653 3566 2395 3850 
Q 2138 4134 1775 4134 
Q 1400 4134 1122 3828 
Q 844 3522 844 3034 
Q 844 2597 1108 2323 
Q 1372 2050 1759 2050 
Q 2150 2050 2401 2323 
Q 2653 2597 2653 3081 
z
" transform="scale(0.015625)"/>
        <path id="ArialMT-30" d="M 266 2259 
Q 266 3072 433 3567 
Q 600 4063 929 4331 
Q 1259 4600 1759 4600 
Q 2128 4600 2406 4451 
Q 2684 4303 2865 4023 
Q 3047 3744 3150 3342 
Q 3253 2941 3253 2259 
Q 3253 1453 3087 958 
Q 2922 463 2592 192 
Q 2263 -78 1759 -78 
Q 1097 -78 719 397 
Q 266 969 266 2259 
z
M 844 2259 
Q 844 1131 1108 757 
Q 1372 384 1759 384 
Q 2147 384 2411 759 
Q 2675 1134 2675 2259 
Q 2675 3391 2411 3762 
Q 2147 4134 1753 4134 
Q 1366 4134 1134 3806 
Q 844 3388 844 2259 
z
" transform="scale(0.015625)"/>
       </defs>
       <use xlink:href="#ArialMT-31"/>
       <use xlink:href="#ArialMT-39" x="55.615234"/>
       <use xlink:href="#ArialMT-39" x="111.230469"/>
       <use xlink:href="#ArialMT-30" x="166.845703"/>
      </g>
     </g>
    </g>
    <g id="xtick_2">
     <g id="line2d_3">
      <path d="M 236.618182 236.88 
L 236.618182 60.48 
" clip-path="url(#p603bbc2ed6)" style="fill: none; stroke-dasharray: 1.85,0.8; stroke-dashoffset: 0; stroke: #b2b2b2; stroke-width: 0.5"/>
     </g>
     <g id="line2d_4"/>
     <g id="text_2">
      <!-- 1995 -->
      <g style="fill: #262626" transform="translate(225.496307 247.537812)scale(0.1 -0.1)">
       <defs>
        <path id="ArialMT-35" d="M 266 1200 
L 856 1250 
Q 922 819 1161 601 
Q 1400 384 1738 384 
Q 2144 384 2425 690 
Q 2706 997 2706 1503 
Q 2706 1984 2436 2262 
Q 2166 2541 1728 2541 
Q 1456 2541 1237 2417 
Q 1019 2294 894 2097 
L 366 2166 
L 809 4519 
L 3088 4519 
L 3088 3981 
L 1259 3981 
L 1013 2750 
Q 1425 3038 1878 3038 
Q 2478 3038 2890 2622 
Q 3303 2206 3303 1553 
Q 3303 931 2941 478 
Q 2500 -78 1738 -78 
Q 1113 -78 717 272 
Q 322 622 266 1200 
z
" transform="scale(0.015625)"/>
       </defs>
       <use xlink:href="#ArialMT-31"/>
       <use xlink:href="#ArialMT-39" x="55.615234"/>
       <use xlink:href="#ArialMT-39" x="111.230469"/>
       <use xlink:href="#ArialMT-35" x="166.845703"/>
      </g>
     </g>
    </g>
    <g id="xtick_3">
     <g id="line2d_5">
      <path d="M 334.8 236.88 
L 334.8 60.48 
" clip-path="url(#p603bbc2ed6)" style="fill: none; stroke-dasharray: 1.85,0.8; stroke-dashoffset: 0; stroke: #b2b2b2; stroke-width: 0.5"/>
     </g>
     <g id="line2d_6"/>
     <g id="text_3">
      <!-- 2000 -->
      <g style="fill: #262626" transform="translate(323.678125 247.537812)scale(0.1 -0.1)">
       <defs>
        <path id="ArialMT-32" d="M 3222 541 
L 3222 0 
L 194 0 
Q 188 203 259 391 
Q 375 700 629 1000 
Q 884 1300 1366 1694 
Q 2113 2306 2375 2664 
Q 2638 3022 2638 3341 
Q 2638 3675 2398 3904 
Q 2159 4134 1775 4134 
Q 1369 4134 1125 3890 
Q 881 3647 878 3216 
L 300 3275 
Q 359 3922 746 4261 
Q 1134 4600 1788 4600 
Q 2447 4600 2831 4234 
Q 3216 3869 3216 3328 
Q 3216 3053 3103 2787 
Q 2991 2522 2730 2228 
Q 2469 1934 1863 1422 
Q 1356 997 1212 845 
Q 1069 694 975 541 
L 3222 541 
z
" transform="scale(0.015625)"/>
       </defs>
       <use xlink:href="#ArialMT-32"/>
       <use xlink:href="#ArialMT-30" x="55.615234"/>
       <use xlink:href="#ArialMT-30" x="111.230469"/>
       <use xlink:href="#ArialMT-30" x="166.845703"/>
      </g>
     </g>
    </g>
    <g id="xtick_4">
     <g id="line2d_7">
      <path d="M 432.981818 236.88 
L 432.981818 60.48 
" clip-path="url(#p603bbc2ed6)" style="fill: none; stroke-dasharray: 1.85,0.8; stroke-dashoffset: 0; stroke: #b2b2b2; stroke-width: 0.5"/>
     </g>
     <g id="line2d_8"/>
     <g id="text_4">
      <!-- 2005 -->
      <g style="fill: #262626" transform="translate(421.859943 247.537812)scale(0.1 -0.1)">
       <use xlink:href="#ArialMT-32"/>
       <use xlink:href="#ArialMT-30" x="55.615234"/>
       <use xlink:href="#ArialMT-30" x="111.230469"/>
       <use xlink:href="#ArialMT-35" x="166.845703"/>
      </g>
     </g>
    </g>
    <g id="xtick_5">
     <g id="line2d_9">
      <path d="M 531.163636 236.88 
L 531.163636 60.48 
" clip-path="url(#p603bbc2ed6)" style="fill: none; stroke-dasharray: 1.85,0.8; stroke-dashoffset: 0; stroke: #b2b2b2; stroke-width: 0.5"/>
     </g>
     <g id="line2d_10"/>
     <g id="text_5">
      <!-- 2010 -->
      <g style="fill: #262626" transform="translate(520.041761 247.537812)scale(0.1 -0.1)">
       <use xlink:href="#ArialMT-32"/>
       <use xlink:href="#ArialMT-30" x="55.615234"/>
       <use xlink:href="#ArialMT-31" x="111.230469"/>
       <use xlink:href="#ArialMT-30" x="166.845703"/>
      </g>
     </g>
    </g>
    <g id="xtick_6">
     <g id="line2d_11">
      <path d="M 629.345455 236.88 
L 629.345455 60.48 
" clip-path="url(#p603bbc2ed6)" style="fill: none; stroke-dasharray: 1.85,0.8; stroke-dashoffset: 0; stroke: #b2b2b2; stroke-width: 0.5"/>
     </g>
     <g id="line2d_12"/>
     <g id="text_6">
      <!-- 2015 -->
      <g style="fill: #262626" transform="translate(618.22358 247.537812)scale(0.1 -0.1)">
       <use xlink:href="#ArialMT-32"/>
       <use xlink:href="#ArialMT-30" x="55.615234"/>
       <use xlink:href="#ArialMT-31" x="111.230469"/>
       <use xlink:href="#ArialMT-35" x="166.845703"/>
      </g>
     </g>
    </g>
    <g id="xtick_7">
     <g id="line2d_13">
      <path d="M 727.527273 236.88 
L 727.527273 60.48 
" clip-path="url(#p603bbc2ed6)" style="fill: none; stroke-dasharray: 1.85,0.8; stroke-dashoffset: 0; stroke: #b2b2b2; stroke-width: 0.5"/>
     </g>
     <g id="line2d_14"/>
     <g id="text_7">
      <!-- 2020 -->
      <g style="fill: #262626" transform="translate(716.405398 247.537812)scale(0.1 -0.1)">
       <use xlink:href="#ArialMT-32"/>
       <use xlink:href="#ArialMT-30" x="55.615234"/>
       <use xlink:href="#ArialMT-32" x="111.230469"/>
       <use xlink:href="#ArialMT-30" x="166.845703"/>
      </g>
     </g>
    </g>
    <g id="text_8">
     <!-- Year -->
     <g style="fill: #262626" transform="translate(430.674375 262.114687)scale(0.12 -0.12)">
      <defs>
       <path id="ArialMT-59" d="M 1784 0 
L 1784 1941 
L 19 4581 
L 756 4581 
L 1659 3200 
Q 1909 2813 2125 2425 
Q 2331 2784 2625 3234 
L 3513 4581 
L 4219 4581 
L 2391 1941 
L 2391 0 
L 1784 0 
z
" transform="scale(0.015625)"/>
       <path id="ArialMT-65" d="M 2694 1069 
L 3275 997 
Q 3138 488 2766 206 
Q 2394 -75 1816 -75 
Q 1088 -75 661 373 
Q 234 822 234 1631 
Q 234 2469 665 2931 
Q 1097 3394 1784 3394 
Q 2450 3394 2872 2941 
Q 3294 2488 3294 1666 
Q 3294 1616 3291 1516 
L 816 1516 
Q 847 969 1125 678 
Q 1403 388 1819 388 
Q 2128 388 2347 550 
Q 2566 713 2694 1069 
z
M 847 1978 
L 2700 1978 
Q 2663 2397 2488 2606 
Q 2219 2931 1791 2931 
Q 1403 2931 1139 2672 
Q 875 2413 847 1978 
z
" transform="scale(0.015625)"/>
       <path id="ArialMT-61" d="M 2588 409 
Q 2275 144 1986 34 
Q 1697 -75 1366 -75 
Q 819 -75 525 192 
Q 231 459 231 875 
Q 231 1119 342 1320 
Q 453 1522 633 1644 
Q 813 1766 1038 1828 
Q 1203 1872 1538 1913 
Q 2219 1994 2541 2106 
Q 2544 2222 2544 2253 
Q 2544 2597 2384 2738 
Q 2169 2928 1744 2928 
Q 1347 2928 1158 2789 
Q 969 2650 878 2297 
L 328 2372 
Q 403 2725 575 2942 
Q 747 3159 1072 3276 
Q 1397 3394 1825 3394 
Q 2250 3394 2515 3294 
Q 2781 3194 2906 3042 
Q 3031 2891 3081 2659 
Q 3109 2516 3109 2141 
L 3109 1391 
Q 3109 606 3145 398 
Q 3181 191 3288 0 
L 2700 0 
Q 2613 175 2588 409 
z
M 2541 1666 
Q 2234 1541 1622 1453 
Q 1275 1403 1131 1340 
Q 988 1278 909 1158 
Q 831 1038 831 891 
Q 831 666 1001 516 
Q 1172 366 1500 366 
Q 1825 366 2078 508 
Q 2331 650 2450 897 
Q 2541 1088 2541 1459 
L 2541 1666 
z
" transform="scale(0.015625)"/>
       <path id="ArialMT-72" d="M 416 0 
L 416 3319 
L 922 3319 
L 922 2816 
Q 1116 3169 1280 3281 
Q 1444 3394 1641 3394 
Q 1925 3394 2219 3213 
L 2025 2691 
Q 1819 2813 1613 2813 
Q 1428 2813 1281 2702 
Q 1134 2591 1072 2394 
Q 978 2094 978 1738 
L 978 0 
L 416 0 
z
" transform="scale(0.015625)"/>
      </defs>
      <use xlink:href="#ArialMT-59"/>
      <use xlink:href="#ArialMT-65" x="57.574219"/>
      <use xlink:href="#ArialMT-61" x="113.189453"/>
      <use xlink:href="#ArialMT-72" x="168.804688"/>
     </g>
    </g>
   </g>
   <g id="matplotlib.axis_2">
    <g id="ytick_1">
     <g id="line2d_15">
      <path d="M 108 215.488071 
L 777.6 215.488071 
" clip-path="url(#p603bbc2ed6)" style="fill: none; stroke-dasharray: 1.85,0.8; stroke-dashoffset: 0; stroke: #b2b2b2; stroke-width: 0.5"/>
     </g>
     <g id="line2d_16"/>
     <g id="text_9">
      <!-- 11000 -->
      <g style="fill: #262626" transform="translate(77.432812 219.066977)scale(0.1 -0.1)">
       <use xlink:href="#ArialMT-31"/>
       <use xlink:href="#ArialMT-31" x="48.240234"/>
       <use xlink:href="#ArialMT-30" x="103.855469"/>
       <use xlink:href="#ArialMT-30" x="159.470703"/>
       <use xlink:href="#ArialMT-30" x="215.085938"/>
      </g>
     </g>
    </g>
    <g id="ytick_2">
     <g id="line2d_17">
      <path d="M 108 185.080061 
L 777.6 185.080061 
" clip-path="url(#p603bbc2ed6)" style="fill: none; stroke-dasharray: 1.85,0.8; stroke-dashoffset: 0; stroke: #b2b2b2; stroke-width: 0.5"/>
     </g>
     <g id="line2d_18"/>
     <g id="text_10">
      <!-- 12000 -->
      <g style="fill: #262626" transform="translate(76.695312 188.658967)scale(0.1 -0.1)">
       <use xlink:href="#ArialMT-31"/>
       <use xlink:href="#ArialMT-32" x="55.615234"/>
       <use xlink:href="#ArialMT-30" x="111.230469"/>
       <use xlink:href="#ArialMT-30" x="166.845703"/>
       <use xlink:href="#ArialMT-30" x="222.460938"/>
      </g>
     </g>
    </g>
    <g id="ytick_3">
     <g id="line2d_19">
      <path d="M 108 154.67205 
L 777.6 154.67205 
" clip-path="url(#p603bbc2ed6)" style="fill: none; stroke-dasharray: 1.85,0.8; stroke-dashoffset: 0; stroke: #b2b2b2; stroke-width: 0.5"/>
     </g>
     <g id="line2d_20"/>
     <g id="text_11">
      <!-- 13000 -->
      <g style="fill: #262626" transform="translate(76.695312 158.250957)scale(0.1 -0.1)">
       <defs>
        <path id="ArialMT-33" d="M 269 1209 
L 831 1284 
Q 928 806 1161 595 
Q 1394 384 1728 384 
Q 2125 384 2398 659 
Q 2672 934 2672 1341 
Q 2672 1728 2419 1979 
Q 2166 2231 1775 2231 
Q 1616 2231 1378 2169 
L 1441 2663 
Q 1497 2656 1531 2656 
Q 1891 2656 2178 2843 
Q 2466 3031 2466 3422 
Q 2466 3731 2256 3934 
Q 2047 4138 1716 4138 
Q 1388 4138 1169 3931 
Q 950 3725 888 3313 
L 325 3413 
Q 428 3978 793 4289 
Q 1159 4600 1703 4600 
Q 2078 4600 2393 4439 
Q 2709 4278 2876 4000 
Q 3044 3722 3044 3409 
Q 3044 3113 2884 2869 
Q 2725 2625 2413 2481 
Q 2819 2388 3044 2092 
Q 3269 1797 3269 1353 
Q 3269 753 2831 336 
Q 2394 -81 1725 -81 
Q 1122 -81 723 278 
Q 325 638 269 1209 
z
" transform="scale(0.015625)"/>
       </defs>
       <use xlink:href="#ArialMT-31"/>
       <use xlink:href="#ArialMT-33" x="55.615234"/>
       <use xlink:href="#ArialMT-30" x="111.230469"/>
       <use xlink:href="#ArialMT-30" x="166.845703"/>
       <use xlink:href="#ArialMT-30" x="222.460938"/>
      </g>
     </g>
    </g>
    <g id="ytick_4">
     <g id="line2d_21">
      <path d="M 108 124.26404 
L 777.6 124.26404 
" clip-path="url(#p603bbc2ed6)" style="fill: none; stroke-dasharray: 1.85,0.8; stroke-dashoffset: 0; stroke: #b2b2b2; stroke-width: 0.5"/>
     </g>
     <g id="line2d_22"/>
     <g id="text_12">
      <!-- 14000 -->
      <g style="fill: #262626" transform="translate(76.695312 127.842946)scale(0.1 -0.1)">
       <defs>
        <path id="ArialMT-34" d="M 2069 0 
L 2069 1097 
L 81 1097 
L 81 1613 
L 2172 4581 
L 2631 4581 
L 2631 1613 
L 3250 1613 
L 3250 1097 
L 2631 1097 
L 2631 0 
L 2069 0 
z
M 2069 1613 
L 2069 3678 
L 634 1613 
L 2069 1613 
z
" transform="scale(0.015625)"/>
       </defs>
       <use xlink:href="#ArialMT-31"/>
       <use xlink:href="#ArialMT-34" x="55.615234"/>
       <use xlink:href="#ArialMT-30" x="111.230469"/>
       <use xlink:href="#ArialMT-30" x="166.845703"/>
       <use xlink:href="#ArialMT-30" x="222.460938"/>
      </g>
     </g>
    </g>
    <g id="ytick_5">
     <g id="line2d_23">
      <path d="M 108 93.85603 
L 777.6 93.85603 
" clip-path="url(#p603bbc2ed6)" style="fill: none; stroke-dasharray: 1.85,0.8; stroke-dashoffset: 0; stroke: #b2b2b2; stroke-width: 0.5"/>
     </g>
     <g id="line2d_24"/>
     <g id="text_13">
      <!-- 15000 -->
      <g style="fill: #262626" transform="translate(76.695312 97.434936)scale(0.1 -0.1)">
       <use xlink:href="#ArialMT-31"/>
       <use xlink:href="#ArialMT-35" x="55.615234"/>
       <use xlink:href="#ArialMT-30" x="111.230469"/>
       <use xlink:href="#ArialMT-30" x="166.845703"/>
       <use xlink:href="#ArialMT-30" x="222.460938"/>
      </g>
     </g>
    </g>
    <g id="ytick_6">
     <g id="line2d_25">
      <path d="M 108 63.448019 
L 777.6 63.448019 
" clip-path="url(#p603bbc2ed6)" style="fill: none; stroke-dasharray: 1.85,0.8; stroke-dashoffset: 0; stroke: #b2b2b2; stroke-width: 0.5"/>
     </g>
     <g id="line2d_26"/>
     <g id="text_14">
      <!-- 16000 -->
      <g style="fill: #262626" transform="translate(76.695312 67.026926)scale(0.1 -0.1)">
       <defs>
        <path id="ArialMT-36" d="M 3184 3459 
L 2625 3416 
Q 2550 3747 2413 3897 
Q 2184 4138 1850 4138 
Q 1581 4138 1378 3988 
Q 1113 3794 959 3422 
Q 806 3050 800 2363 
Q 1003 2672 1297 2822 
Q 1591 2972 1913 2972 
Q 2475 2972 2870 2558 
Q 3266 2144 3266 1488 
Q 3266 1056 3080 686 
Q 2894 316 2569 119 
Q 2244 -78 1831 -78 
Q 1128 -78 684 439 
Q 241 956 241 2144 
Q 241 3472 731 4075 
Q 1159 4600 1884 4600 
Q 2425 4600 2770 4297 
Q 3116 3994 3184 3459 
z
M 888 1484 
Q 888 1194 1011 928 
Q 1134 663 1356 523 
Q 1578 384 1822 384 
Q 2178 384 2434 671 
Q 2691 959 2691 1453 
Q 2691 1928 2437 2201 
Q 2184 2475 1800 2475 
Q 1419 2475 1153 2201 
Q 888 1928 888 1484 
z
" transform="scale(0.015625)"/>
       </defs>
       <use xlink:href="#ArialMT-31"/>
       <use xlink:href="#ArialMT-36" x="55.615234"/>
       <use xlink:href="#ArialMT-30" x="111.230469"/>
       <use xlink:href="#ArialMT-30" x="166.845703"/>
       <use xlink:href="#ArialMT-30" x="222.460938"/>
      </g>
     </g>
    </g>
   </g>
   <g id="line2d_27">
    <path d="M 138.436364 172.438235 
L 158.072727 175.611006 
L 177.709091 68.498182 
L 197.345455 84.495228 
L 216.981818 107.744584 
L 236.618182 135.97082 
L 256.254545 150.135783 
L 275.890909 158.507109 
L 295.527273 167.609747 
L 315.163636 189.431751 
L 334.8 192.013695 
L 354.436364 194.880563 
L 374.072727 181.281492 
L 393.709091 183.638113 
L 413.345455 179.696931 
L 432.981818 176.305525 
L 452.618182 178.750938 
L 472.254545 171.588939 
L 491.890909 176.137065 
L 511.527273 187.068441 
L 531.163636 192.350008 
L 550.8 196.291494 
L 570.436364 204.290625 
L 590.072727 218.626482 
L 609.709091 214.324661 
L 629.345455 218.018322 
L 648.981818 218.431567 
L 668.618182 221.243395 
L 688.254545 215.104018 
L 707.890909 221.003172 
L 727.527273 227.610224 
L 747.163636 228.861818 
" clip-path="url(#p603bbc2ed6)" style="fill: none; stroke: #348abd; stroke-width: 2; stroke-linecap: round"/>
   </g>
   <g id="patch_3">
    <path d="M 108 236.88 
L 108 60.48 
" style="fill: none"/>
   </g>
   <g id="patch_4">
    <path d="M 777.6 236.88 
L 777.6 60.48 
" style="fill: none"/>
   </g>
   <g id="patch_5">
    <path d="M 108 236.88 
L 777.6 236.88 
" style="fill: none"/>
   </g>
   <g id="patch_6">
    <path d="M 108 60.48 
L 777.6 60.48 
" style="fill: none"/>
   </g>
   <g id="text_15">
    <!-- Time Series Analysis Plots -->
    <g style="fill: #262626" transform="translate(358.24275 39.02925)scale(0.144 -0.144)">
     <defs>
      <path id="ArialMT-54" d="M 1659 0 
L 1659 4041 
L 150 4041 
L 150 4581 
L 3781 4581 
L 3781 4041 
L 2266 4041 
L 2266 0 
L 1659 0 
z
" transform="scale(0.015625)"/>
      <path id="ArialMT-69" d="M 425 3934 
L 425 4581 
L 988 4581 
L 988 3934 
L 425 3934 
z
M 425 0 
L 425 3319 
L 988 3319 
L 988 0 
L 425 0 
z
" transform="scale(0.015625)"/>
      <path id="ArialMT-6d" d="M 422 0 
L 422 3319 
L 925 3319 
L 925 2853 
Q 1081 3097 1340 3245 
Q 1600 3394 1931 3394 
Q 2300 3394 2536 3241 
Q 2772 3088 2869 2813 
Q 3263 3394 3894 3394 
Q 4388 3394 4653 3120 
Q 4919 2847 4919 2278 
L 4919 0 
L 4359 0 
L 4359 2091 
Q 4359 2428 4304 2576 
Q 4250 2725 4106 2815 
Q 3963 2906 3769 2906 
Q 3419 2906 3187 2673 
Q 2956 2441 2956 1928 
L 2956 0 
L 2394 0 
L 2394 2156 
Q 2394 2531 2256 2718 
Q 2119 2906 1806 2906 
Q 1569 2906 1367 2781 
Q 1166 2656 1075 2415 
Q 984 2175 984 1722 
L 984 0 
L 422 0 
z
" transform="scale(0.015625)"/>
      <path id="ArialMT-20" transform="scale(0.015625)"/>
      <path id="ArialMT-53" d="M 288 1472 
L 859 1522 
Q 900 1178 1048 958 
Q 1197 738 1509 602 
Q 1822 466 2213 466 
Q 2559 466 2825 569 
Q 3091 672 3220 851 
Q 3350 1031 3350 1244 
Q 3350 1459 3225 1620 
Q 3100 1781 2813 1891 
Q 2628 1963 1997 2114 
Q 1366 2266 1113 2400 
Q 784 2572 623 2826 
Q 463 3081 463 3397 
Q 463 3744 659 4045 
Q 856 4347 1234 4503 
Q 1613 4659 2075 4659 
Q 2584 4659 2973 4495 
Q 3363 4331 3572 4012 
Q 3781 3694 3797 3291 
L 3216 3247 
Q 3169 3681 2898 3903 
Q 2628 4125 2100 4125 
Q 1550 4125 1298 3923 
Q 1047 3722 1047 3438 
Q 1047 3191 1225 3031 
Q 1400 2872 2139 2705 
Q 2878 2538 3153 2413 
Q 3553 2228 3743 1945 
Q 3934 1663 3934 1294 
Q 3934 928 3725 604 
Q 3516 281 3123 101 
Q 2731 -78 2241 -78 
Q 1619 -78 1198 103 
Q 778 284 539 648 
Q 300 1013 288 1472 
z
" transform="scale(0.015625)"/>
      <path id="ArialMT-73" d="M 197 991 
L 753 1078 
Q 800 744 1014 566 
Q 1228 388 1613 388 
Q 2000 388 2187 545 
Q 2375 703 2375 916 
Q 2375 1106 2209 1216 
Q 2094 1291 1634 1406 
Q 1016 1563 777 1677 
Q 538 1791 414 1992 
Q 291 2194 291 2438 
Q 291 2659 392 2848 
Q 494 3038 669 3163 
Q 800 3259 1026 3326 
Q 1253 3394 1513 3394 
Q 1903 3394 2198 3281 
Q 2494 3169 2634 2976 
Q 2775 2784 2828 2463 
L 2278 2388 
Q 2241 2644 2061 2787 
Q 1881 2931 1553 2931 
Q 1166 2931 1000 2803 
Q 834 2675 834 2503 
Q 834 2394 903 2306 
Q 972 2216 1119 2156 
Q 1203 2125 1616 2013 
Q 2213 1853 2448 1751 
Q 2684 1650 2818 1456 
Q 2953 1263 2953 975 
Q 2953 694 2789 445 
Q 2625 197 2315 61 
Q 2006 -75 1616 -75 
Q 969 -75 630 194 
Q 291 463 197 991 
z
" transform="scale(0.015625)"/>
      <path id="ArialMT-41" d="M -9 0 
L 1750 4581 
L 2403 4581 
L 4278 0 
L 3588 0 
L 3053 1388 
L 1138 1388 
L 634 0 
L -9 0 
z
M 1313 1881 
L 2866 1881 
L 2388 3150 
Q 2169 3728 2063 4100 
Q 1975 3659 1816 3225 
L 1313 1881 
z
" transform="scale(0.015625)"/>
      <path id="ArialMT-6e" d="M 422 0 
L 422 3319 
L 928 3319 
L 928 2847 
Q 1294 3394 1984 3394 
Q 2284 3394 2536 3286 
Q 2788 3178 2913 3003 
Q 3038 2828 3088 2588 
Q 3119 2431 3119 2041 
L 3119 0 
L 2556 0 
L 2556 2019 
Q 2556 2363 2490 2533 
Q 2425 2703 2258 2804 
Q 2091 2906 1866 2906 
Q 1506 2906 1245 2678 
Q 984 2450 984 1813 
L 984 0 
L 422 0 
z
" transform="scale(0.015625)"/>
      <path id="ArialMT-6c" d="M 409 0 
L 409 4581 
L 972 4581 
L 972 0 
L 409 0 
z
" transform="scale(0.015625)"/>
      <path id="ArialMT-79" d="M 397 -1278 
L 334 -750 
Q 519 -800 656 -800 
Q 844 -800 956 -737 
Q 1069 -675 1141 -563 
Q 1194 -478 1313 -144 
Q 1328 -97 1363 -6 
L 103 3319 
L 709 3319 
L 1400 1397 
Q 1534 1031 1641 628 
Q 1738 1016 1872 1384 
L 2581 3319 
L 3144 3319 
L 1881 -56 
Q 1678 -603 1566 -809 
Q 1416 -1088 1222 -1217 
Q 1028 -1347 759 -1347 
Q 597 -1347 397 -1278 
z
" transform="scale(0.015625)"/>
      <path id="ArialMT-50" d="M 494 0 
L 494 4581 
L 2222 4581 
Q 2678 4581 2919 4538 
Q 3256 4481 3484 4323 
Q 3713 4166 3852 3881 
Q 3991 3597 3991 3256 
Q 3991 2672 3619 2267 
Q 3247 1863 2275 1863 
L 1100 1863 
L 1100 0 
L 494 0 
z
M 1100 2403 
L 2284 2403 
Q 2872 2403 3119 2622 
Q 3366 2841 3366 3238 
Q 3366 3525 3220 3729 
Q 3075 3934 2838 4000 
Q 2684 4041 2272 4041 
L 1100 4041 
L 1100 2403 
z
" transform="scale(0.015625)"/>
      <path id="ArialMT-6f" d="M 213 1659 
Q 213 2581 725 3025 
Q 1153 3394 1769 3394 
Q 2453 3394 2887 2945 
Q 3322 2497 3322 1706 
Q 3322 1066 3130 698 
Q 2938 331 2570 128 
Q 2203 -75 1769 -75 
Q 1072 -75 642 372 
Q 213 819 213 1659 
z
M 791 1659 
Q 791 1022 1069 705 
Q 1347 388 1769 388 
Q 2188 388 2466 706 
Q 2744 1025 2744 1678 
Q 2744 2294 2464 2611 
Q 2184 2928 1769 2928 
Q 1347 2928 1069 2612 
Q 791 2297 791 1659 
z
" transform="scale(0.015625)"/>
      <path id="ArialMT-74" d="M 1650 503 
L 1731 6 
Q 1494 -44 1306 -44 
Q 1000 -44 831 53 
Q 663 150 594 308 
Q 525 466 525 972 
L 525 2881 
L 113 2881 
L 113 3319 
L 525 3319 
L 525 4141 
L 1084 4478 
L 1084 3319 
L 1650 3319 
L 1650 2881 
L 1084 2881 
L 1084 941 
Q 1084 700 1114 631 
Q 1144 563 1211 522 
Q 1278 481 1403 481 
Q 1497 481 1650 503 
z
" transform="scale(0.015625)"/>
     </defs>
     <use xlink:href="#ArialMT-54"/>
     <use xlink:href="#ArialMT-69" x="57.333984"/>
     <use xlink:href="#ArialMT-6d" x="79.550781"/>
     <use xlink:href="#ArialMT-65" x="162.851562"/>
     <use xlink:href="#ArialMT-20" x="218.466797"/>
     <use xlink:href="#ArialMT-53" x="246.25"/>
     <use xlink:href="#ArialMT-65" x="312.949219"/>
     <use xlink:href="#ArialMT-72" x="368.564453"/>
     <use xlink:href="#ArialMT-69" x="401.865234"/>
     <use xlink:href="#ArialMT-65" x="424.082031"/>
     <use xlink:href="#ArialMT-73" x="479.697266"/>
     <use xlink:href="#ArialMT-20" x="529.697266"/>
     <use xlink:href="#ArialMT-41" x="551.980469"/>
     <use xlink:href="#ArialMT-6e" x="618.679688"/>
     <use xlink:href="#ArialMT-61" x="674.294922"/>
     <use xlink:href="#ArialMT-6c" x="729.910156"/>
     <use xlink:href="#ArialMT-79" x="752.126953"/>
     <use xlink:href="#ArialMT-73" x="802.126953"/>
     <use xlink:href="#ArialMT-69" x="852.126953"/>
     <use xlink:href="#ArialMT-73" x="874.34375"/>
     <use xlink:href="#ArialMT-20" x="924.34375"/>
     <use xlink:href="#ArialMT-50" x="952.126953"/>
     <use xlink:href="#ArialMT-6c" x="1018.826172"/>
     <use xlink:href="#ArialMT-6f" x="1041.042969"/>
     <use xlink:href="#ArialMT-74" x="1096.658203"/>
     <use xlink:href="#ArialMT-73" x="1124.441406"/>
    </g>
    <!--  Dickey-Fuller: p=0.99059 -->
    <g style="fill: #262626" transform="translate(360.563625 54.48)scale(0.144 -0.144)">
     <defs>
      <path id="ArialMT-44" d="M 494 0 
L 494 4581 
L 2072 4581 
Q 2606 4581 2888 4516 
Q 3281 4425 3559 4188 
Q 3922 3881 4101 3404 
Q 4281 2928 4281 2316 
Q 4281 1794 4159 1391 
Q 4038 988 3847 723 
Q 3656 459 3429 307 
Q 3203 156 2883 78 
Q 2563 0 2147 0 
L 494 0 
z
M 1100 541 
L 2078 541 
Q 2531 541 2789 625 
Q 3047 709 3200 863 
Q 3416 1078 3536 1442 
Q 3656 1806 3656 2325 
Q 3656 3044 3420 3430 
Q 3184 3816 2847 3947 
Q 2603 4041 2063 4041 
L 1100 4041 
L 1100 541 
z
" transform="scale(0.015625)"/>
      <path id="ArialMT-63" d="M 2588 1216 
L 3141 1144 
Q 3050 572 2676 248 
Q 2303 -75 1759 -75 
Q 1078 -75 664 370 
Q 250 816 250 1647 
Q 250 2184 428 2587 
Q 606 2991 970 3192 
Q 1334 3394 1763 3394 
Q 2303 3394 2647 3120 
Q 2991 2847 3088 2344 
L 2541 2259 
Q 2463 2594 2264 2762 
Q 2066 2931 1784 2931 
Q 1359 2931 1093 2626 
Q 828 2322 828 1663 
Q 828 994 1084 691 
Q 1341 388 1753 388 
Q 2084 388 2306 591 
Q 2528 794 2588 1216 
z
" transform="scale(0.015625)"/>
      <path id="ArialMT-6b" d="M 425 0 
L 425 4581 
L 988 4581 
L 988 1969 
L 2319 3319 
L 3047 3319 
L 1778 2088 
L 3175 0 
L 2481 0 
L 1384 1697 
L 988 1316 
L 988 0 
L 425 0 
z
" transform="scale(0.015625)"/>
      <path id="ArialMT-2d" d="M 203 1375 
L 203 1941 
L 1931 1941 
L 1931 1375 
L 203 1375 
z
" transform="scale(0.015625)"/>
      <path id="ArialMT-46" d="M 525 0 
L 525 4581 
L 3616 4581 
L 3616 4041 
L 1131 4041 
L 1131 2622 
L 3281 2622 
L 3281 2081 
L 1131 2081 
L 1131 0 
L 525 0 
z
" transform="scale(0.015625)"/>
      <path id="ArialMT-75" d="M 2597 0 
L 2597 488 
Q 2209 -75 1544 -75 
Q 1250 -75 995 37 
Q 741 150 617 320 
Q 494 491 444 738 
Q 409 903 409 1263 
L 409 3319 
L 972 3319 
L 972 1478 
Q 972 1038 1006 884 
Q 1059 663 1231 536 
Q 1403 409 1656 409 
Q 1909 409 2131 539 
Q 2353 669 2445 892 
Q 2538 1116 2538 1541 
L 2538 3319 
L 3100 3319 
L 3100 0 
L 2597 0 
z
" transform="scale(0.015625)"/>
      <path id="ArialMT-3a" d="M 578 2678 
L 578 3319 
L 1219 3319 
L 1219 2678 
L 578 2678 
z
M 578 0 
L 578 641 
L 1219 641 
L 1219 0 
L 578 0 
z
" transform="scale(0.015625)"/>
      <path id="ArialMT-70" d="M 422 -1272 
L 422 3319 
L 934 3319 
L 934 2888 
Q 1116 3141 1344 3267 
Q 1572 3394 1897 3394 
Q 2322 3394 2647 3175 
Q 2972 2956 3137 2557 
Q 3303 2159 3303 1684 
Q 3303 1175 3120 767 
Q 2938 359 2589 142 
Q 2241 -75 1856 -75 
Q 1575 -75 1351 44 
Q 1128 163 984 344 
L 984 -1272 
L 422 -1272 
z
M 931 1641 
Q 931 1000 1190 694 
Q 1450 388 1819 388 
Q 2194 388 2461 705 
Q 2728 1022 2728 1688 
Q 2728 2322 2467 2637 
Q 2206 2953 1844 2953 
Q 1484 2953 1207 2617 
Q 931 2281 931 1641 
z
" transform="scale(0.015625)"/>
      <path id="ArialMT-3d" d="M 3381 2694 
L 356 2694 
L 356 3219 
L 3381 3219 
L 3381 2694 
z
M 3381 1303 
L 356 1303 
L 356 1828 
L 3381 1828 
L 3381 1303 
z
" transform="scale(0.015625)"/>
      <path id="ArialMT-2e" d="M 581 0 
L 581 641 
L 1222 641 
L 1222 0 
L 581 0 
z
" transform="scale(0.015625)"/>
     </defs>
     <use xlink:href="#ArialMT-20"/>
     <use xlink:href="#ArialMT-44" x="27.783203"/>
     <use xlink:href="#ArialMT-69" x="100"/>
     <use xlink:href="#ArialMT-63" x="122.216797"/>
     <use xlink:href="#ArialMT-6b" x="172.216797"/>
     <use xlink:href="#ArialMT-65" x="222.216797"/>
     <use xlink:href="#ArialMT-79" x="277.832031"/>
     <use xlink:href="#ArialMT-2d" x="327.832031"/>
     <use xlink:href="#ArialMT-46" x="361.132812"/>
     <use xlink:href="#ArialMT-75" x="422.216797"/>
     <use xlink:href="#ArialMT-6c" x="477.832031"/>
     <use xlink:href="#ArialMT-6c" x="500.048828"/>
     <use xlink:href="#ArialMT-65" x="522.265625"/>
     <use xlink:href="#ArialMT-72" x="577.880859"/>
     <use xlink:href="#ArialMT-3a" x="611.181641"/>
     <use xlink:href="#ArialMT-20" x="638.964844"/>
     <use xlink:href="#ArialMT-70" x="666.748047"/>
     <use xlink:href="#ArialMT-3d" x="722.363281"/>
     <use xlink:href="#ArialMT-30" x="780.761719"/>
     <use xlink:href="#ArialMT-2e" x="836.376953"/>
     <use xlink:href="#ArialMT-39" x="864.160156"/>
     <use xlink:href="#ArialMT-39" x="919.775391"/>
     <use xlink:href="#ArialMT-30" x="975.390625"/>
     <use xlink:href="#ArialMT-35" x="1031.005859"/>
     <use xlink:href="#ArialMT-39" x="1086.621094"/>
    </g>
   </g>
  </g>
  <g id="axes_2">
   <g id="patch_7">
    <path d="M 108 448.56 
L 412.363636 448.56 
L 412.363636 272.16 
L 108 272.16 
z
" style="fill: #eeeeee"/>
   </g>
   <g id="matplotlib.axis_3">
    <g id="xtick_8">
     <g id="line2d_28">
      <path d="M 121.834711 448.56 
L 121.834711 272.16 
" clip-path="url(#pe80e64e1ff)" style="fill: none; stroke-dasharray: 1.85,0.8; stroke-dashoffset: 0; stroke: #b2b2b2; stroke-width: 0.5"/>
     </g>
     <g id="line2d_29"/>
     <g id="text_16">
      <!-- 0.0 -->
      <g style="fill: #262626" transform="translate(114.884711 459.217813)scale(0.1 -0.1)">
       <use xlink:href="#ArialMT-30"/>
       <use xlink:href="#ArialMT-2e" x="55.615234"/>
       <use xlink:href="#ArialMT-30" x="83.398438"/>
      </g>
     </g>
    </g>
    <g id="xtick_9">
     <g id="line2d_30">
      <path d="M 163.758077 448.56 
L 163.758077 272.16 
" clip-path="url(#pe80e64e1ff)" style="fill: none; stroke-dasharray: 1.85,0.8; stroke-dashoffset: 0; stroke: #b2b2b2; stroke-width: 0.5"/>
     </g>
     <g id="line2d_31"/>
     <g id="text_17">
      <!-- 2.5 -->
      <g style="fill: #262626" transform="translate(156.808077 459.217813)scale(0.1 -0.1)">
       <use xlink:href="#ArialMT-32"/>
       <use xlink:href="#ArialMT-2e" x="55.615234"/>
       <use xlink:href="#ArialMT-35" x="83.398438"/>
      </g>
     </g>
    </g>
    <g id="xtick_10">
     <g id="line2d_32">
      <path d="M 205.681443 448.56 
L 205.681443 272.16 
" clip-path="url(#pe80e64e1ff)" style="fill: none; stroke-dasharray: 1.85,0.8; stroke-dashoffset: 0; stroke: #b2b2b2; stroke-width: 0.5"/>
     </g>
     <g id="line2d_33"/>
     <g id="text_18">
      <!-- 5.0 -->
      <g style="fill: #262626" transform="translate(198.731443 459.217813)scale(0.1 -0.1)">
       <use xlink:href="#ArialMT-35"/>
       <use xlink:href="#ArialMT-2e" x="55.615234"/>
       <use xlink:href="#ArialMT-30" x="83.398438"/>
      </g>
     </g>
    </g>
    <g id="xtick_11">
     <g id="line2d_34">
      <path d="M 247.604808 448.56 
L 247.604808 272.16 
" clip-path="url(#pe80e64e1ff)" style="fill: none; stroke-dasharray: 1.85,0.8; stroke-dashoffset: 0; stroke: #b2b2b2; stroke-width: 0.5"/>
     </g>
     <g id="line2d_35"/>
     <g id="text_19">
      <!-- 7.5 -->
      <g style="fill: #262626" transform="translate(240.654808 459.217813)scale(0.1 -0.1)">
       <defs>
        <path id="ArialMT-37" d="M 303 3981 
L 303 4522 
L 3269 4522 
L 3269 4084 
Q 2831 3619 2401 2847 
Q 1972 2075 1738 1259 
Q 1569 684 1522 0 
L 944 0 
Q 953 541 1156 1306 
Q 1359 2072 1739 2783 
Q 2119 3494 2547 3981 
L 303 3981 
z
" transform="scale(0.015625)"/>
       </defs>
       <use xlink:href="#ArialMT-37"/>
       <use xlink:href="#ArialMT-2e" x="55.615234"/>
       <use xlink:href="#ArialMT-35" x="83.398438"/>
      </g>
     </g>
    </g>
    <g id="xtick_12">
     <g id="line2d_36">
      <path d="M 289.528174 448.56 
L 289.528174 272.16 
" clip-path="url(#pe80e64e1ff)" style="fill: none; stroke-dasharray: 1.85,0.8; stroke-dashoffset: 0; stroke: #b2b2b2; stroke-width: 0.5"/>
     </g>
     <g id="line2d_37"/>
     <g id="text_20">
      <!-- 10.0 -->
      <g style="fill: #262626" transform="translate(279.797706 459.217813)scale(0.1 -0.1)">
       <use xlink:href="#ArialMT-31"/>
       <use xlink:href="#ArialMT-30" x="55.615234"/>
       <use xlink:href="#ArialMT-2e" x="111.230469"/>
       <use xlink:href="#ArialMT-30" x="139.013672"/>
      </g>
     </g>
    </g>
    <g id="xtick_13">
     <g id="line2d_38">
      <path d="M 331.45154 448.56 
L 331.45154 272.16 
" clip-path="url(#pe80e64e1ff)" style="fill: none; stroke-dasharray: 1.85,0.8; stroke-dashoffset: 0; stroke: #b2b2b2; stroke-width: 0.5"/>
     </g>
     <g id="line2d_39"/>
     <g id="text_21">
      <!-- 12.5 -->
      <g style="fill: #262626" transform="translate(321.721071 459.217813)scale(0.1 -0.1)">
       <use xlink:href="#ArialMT-31"/>
       <use xlink:href="#ArialMT-32" x="55.615234"/>
       <use xlink:href="#ArialMT-2e" x="111.230469"/>
       <use xlink:href="#ArialMT-35" x="139.013672"/>
      </g>
     </g>
    </g>
    <g id="xtick_14">
     <g id="line2d_40">
      <path d="M 373.374906 448.56 
L 373.374906 272.16 
" clip-path="url(#pe80e64e1ff)" style="fill: none; stroke-dasharray: 1.85,0.8; stroke-dashoffset: 0; stroke: #b2b2b2; stroke-width: 0.5"/>
     </g>
     <g id="line2d_41"/>
     <g id="text_22">
      <!-- 15.0 -->
      <g style="fill: #262626" transform="translate(363.644437 459.217813)scale(0.1 -0.1)">
       <use xlink:href="#ArialMT-31"/>
       <use xlink:href="#ArialMT-35" x="55.615234"/>
       <use xlink:href="#ArialMT-2e" x="111.230469"/>
       <use xlink:href="#ArialMT-30" x="139.013672"/>
      </g>
     </g>
    </g>
    <g id="text_23">
     <!-- Lags -->
     <g style="fill: #262626" transform="translate(247.172131 473.794688)scale(0.12 -0.12)">
      <defs>
       <path id="ArialMT-4c" d="M 469 0 
L 469 4581 
L 1075 4581 
L 1075 541 
L 3331 541 
L 3331 0 
L 469 0 
z
" transform="scale(0.015625)"/>
       <path id="ArialMT-67" d="M 319 -275 
L 866 -356 
Q 900 -609 1056 -725 
Q 1266 -881 1628 -881 
Q 2019 -881 2231 -725 
Q 2444 -569 2519 -288 
Q 2563 -116 2559 434 
Q 2191 0 1641 0 
Q 956 0 581 494 
Q 206 988 206 1678 
Q 206 2153 378 2554 
Q 550 2956 876 3175 
Q 1203 3394 1644 3394 
Q 2231 3394 2613 2919 
L 2613 3319 
L 3131 3319 
L 3131 450 
Q 3131 -325 2973 -648 
Q 2816 -972 2473 -1159 
Q 2131 -1347 1631 -1347 
Q 1038 -1347 672 -1080 
Q 306 -813 319 -275 
z
M 784 1719 
Q 784 1066 1043 766 
Q 1303 466 1694 466 
Q 2081 466 2343 764 
Q 2606 1063 2606 1700 
Q 2606 2309 2336 2618 
Q 2066 2928 1684 2928 
Q 1309 2928 1046 2623 
Q 784 2319 784 1719 
z
" transform="scale(0.015625)"/>
      </defs>
      <use xlink:href="#ArialMT-4c"/>
      <use xlink:href="#ArialMT-61" x="55.615234"/>
      <use xlink:href="#ArialMT-67" x="111.230469"/>
      <use xlink:href="#ArialMT-73" x="166.845703"/>
     </g>
    </g>
   </g>
   <g id="matplotlib.axis_4">
    <g id="ytick_7">
     <g id="line2d_42">
      <path d="M 108 448.56 
L 412.363636 448.56 
" clip-path="url(#pe80e64e1ff)" style="fill: none; stroke-dasharray: 1.85,0.8; stroke-dashoffset: 0; stroke: #b2b2b2; stroke-width: 0.5"/>
     </g>
     <g id="line2d_43"/>
     <g id="text_24">
      <!-- −1.00 -->
      <g style="fill: #262626" transform="translate(79.198437 452.138906)scale(0.1 -0.1)">
       <defs>
        <path id="ArialMT-2212" d="M 3381 1997 
L 356 1997 
L 356 2522 
L 3381 2522 
L 3381 1997 
z
" transform="scale(0.015625)"/>
       </defs>
       <use xlink:href="#ArialMT-2212"/>
       <use xlink:href="#ArialMT-31" x="58.398438"/>
       <use xlink:href="#ArialMT-2e" x="114.013672"/>
       <use xlink:href="#ArialMT-30" x="141.796875"/>
       <use xlink:href="#ArialMT-30" x="197.412109"/>
      </g>
     </g>
    </g>
    <g id="ytick_8">
     <g id="line2d_44">
      <path d="M 108 426.51 
L 412.363636 426.51 
" clip-path="url(#pe80e64e1ff)" style="fill: none; stroke-dasharray: 1.85,0.8; stroke-dashoffset: 0; stroke: #b2b2b2; stroke-width: 0.5"/>
     </g>
     <g id="line2d_45"/>
     <g id="text_25">
      <!-- −0.75 -->
      <g style="fill: #262626" transform="translate(79.198437 430.088906)scale(0.1 -0.1)">
       <use xlink:href="#ArialMT-2212"/>
       <use xlink:href="#ArialMT-30" x="58.398438"/>
       <use xlink:href="#ArialMT-2e" x="114.013672"/>
       <use xlink:href="#ArialMT-37" x="141.796875"/>
       <use xlink:href="#ArialMT-35" x="197.412109"/>
      </g>
     </g>
    </g>
    <g id="ytick_9">
     <g id="line2d_46">
      <path d="M 108 404.46 
L 412.363636 404.46 
" clip-path="url(#pe80e64e1ff)" style="fill: none; stroke-dasharray: 1.85,0.8; stroke-dashoffset: 0; stroke: #b2b2b2; stroke-width: 0.5"/>
     </g>
     <g id="line2d_47"/>
     <g id="text_26">
      <!-- −0.50 -->
      <g style="fill: #262626" transform="translate(79.198437 408.038906)scale(0.1 -0.1)">
       <use xlink:href="#ArialMT-2212"/>
       <use xlink:href="#ArialMT-30" x="58.398438"/>
       <use xlink:href="#ArialMT-2e" x="114.013672"/>
       <use xlink:href="#ArialMT-35" x="141.796875"/>
       <use xlink:href="#ArialMT-30" x="197.412109"/>
      </g>
     </g>
    </g>
    <g id="ytick_10">
     <g id="line2d_48">
      <path d="M 108 382.41 
L 412.363636 382.41 
" clip-path="url(#pe80e64e1ff)" style="fill: none; stroke-dasharray: 1.85,0.8; stroke-dashoffset: 0; stroke: #b2b2b2; stroke-width: 0.5"/>
     </g>
     <g id="line2d_49"/>
     <g id="text_27">
      <!-- −0.25 -->
      <g style="fill: #262626" transform="translate(79.198437 385.988906)scale(0.1 -0.1)">
       <use xlink:href="#ArialMT-2212"/>
       <use xlink:href="#ArialMT-30" x="58.398438"/>
       <use xlink:href="#ArialMT-2e" x="114.013672"/>
       <use xlink:href="#ArialMT-32" x="141.796875"/>
       <use xlink:href="#ArialMT-35" x="197.412109"/>
      </g>
     </g>
    </g>
    <g id="ytick_11">
     <g id="line2d_50">
      <path d="M 108 360.36 
L 412.363636 360.36 
" clip-path="url(#pe80e64e1ff)" style="fill: none; stroke-dasharray: 1.85,0.8; stroke-dashoffset: 0; stroke: #b2b2b2; stroke-width: 0.5"/>
     </g>
     <g id="line2d_51"/>
     <g id="text_28">
      <!-- 0.00 -->
      <g style="fill: #262626" transform="translate(85.039062 363.938906)scale(0.1 -0.1)">
       <use xlink:href="#ArialMT-30"/>
       <use xlink:href="#ArialMT-2e" x="55.615234"/>
       <use xlink:href="#ArialMT-30" x="83.398438"/>
       <use xlink:href="#ArialMT-30" x="139.013672"/>
      </g>
     </g>
    </g>
    <g id="ytick_12">
     <g id="line2d_52">
      <path d="M 108 338.31 
L 412.363636 338.31 
" clip-path="url(#pe80e64e1ff)" style="fill: none; stroke-dasharray: 1.85,0.8; stroke-dashoffset: 0; stroke: #b2b2b2; stroke-width: 0.5"/>
     </g>
     <g id="line2d_53"/>
     <g id="text_29">
      <!-- 0.25 -->
      <g style="fill: #262626" transform="translate(85.039062 341.888906)scale(0.1 -0.1)">
       <use xlink:href="#ArialMT-30"/>
       <use xlink:href="#ArialMT-2e" x="55.615234"/>
       <use xlink:href="#ArialMT-32" x="83.398438"/>
       <use xlink:href="#ArialMT-35" x="139.013672"/>
      </g>
     </g>
    </g>
    <g id="ytick_13">
     <g id="line2d_54">
      <path d="M 108 316.26 
L 412.363636 316.26 
" clip-path="url(#pe80e64e1ff)" style="fill: none; stroke-dasharray: 1.85,0.8; stroke-dashoffset: 0; stroke: #b2b2b2; stroke-width: 0.5"/>
     </g>
     <g id="line2d_55"/>
     <g id="text_30">
      <!-- 0.50 -->
      <g style="fill: #262626" transform="translate(85.039062 319.838906)scale(0.1 -0.1)">
       <use xlink:href="#ArialMT-30"/>
       <use xlink:href="#ArialMT-2e" x="55.615234"/>
       <use xlink:href="#ArialMT-35" x="83.398438"/>
       <use xlink:href="#ArialMT-30" x="139.013672"/>
      </g>
     </g>
    </g>
    <g id="ytick_14">
     <g id="line2d_56">
      <path d="M 108 294.21 
L 412.363636 294.21 
" clip-path="url(#pe80e64e1ff)" style="fill: none; stroke-dasharray: 1.85,0.8; stroke-dashoffset: 0; stroke: #b2b2b2; stroke-width: 0.5"/>
     </g>
     <g id="line2d_57"/>
     <g id="text_31">
      <!-- 0.75 -->
      <g style="fill: #262626" transform="translate(85.039062 297.788906)scale(0.1 -0.1)">
       <use xlink:href="#ArialMT-30"/>
       <use xlink:href="#ArialMT-2e" x="55.615234"/>
       <use xlink:href="#ArialMT-37" x="83.398438"/>
       <use xlink:href="#ArialMT-35" x="139.013672"/>
      </g>
     </g>
    </g>
    <g id="ytick_15">
     <g id="line2d_58">
      <path d="M 108 272.16 
L 412.363636 272.16 
" clip-path="url(#pe80e64e1ff)" style="fill: none; stroke-dasharray: 1.85,0.8; stroke-dashoffset: 0; stroke: #b2b2b2; stroke-width: 0.5"/>
     </g>
     <g id="line2d_59"/>
     <g id="text_32">
      <!-- 1.00 -->
      <g style="fill: #262626" transform="translate(85.039062 275.738906)scale(0.1 -0.1)">
       <use xlink:href="#ArialMT-31"/>
       <use xlink:href="#ArialMT-2e" x="55.615234"/>
       <use xlink:href="#ArialMT-30" x="83.398438"/>
       <use xlink:href="#ArialMT-30" x="139.013672"/>
      </g>
     </g>
    </g>
    <g id="text_33">
     <!-- ACF -->
     <g style="fill: #262626" transform="translate(72.813437 372.36)rotate(-90)scale(0.12 -0.12)">
      <defs>
       <path id="ArialMT-43" d="M 3763 1606 
L 4369 1453 
Q 4178 706 3683 314 
Q 3188 -78 2472 -78 
Q 1731 -78 1267 223 
Q 803 525 561 1097 
Q 319 1669 319 2325 
Q 319 3041 592 3573 
Q 866 4106 1370 4382 
Q 1875 4659 2481 4659 
Q 3169 4659 3637 4309 
Q 4106 3959 4291 3325 
L 3694 3184 
Q 3534 3684 3231 3912 
Q 2928 4141 2469 4141 
Q 1941 4141 1586 3887 
Q 1231 3634 1087 3207 
Q 944 2781 944 2328 
Q 944 1744 1114 1308 
Q 1284 872 1643 656 
Q 2003 441 2422 441 
Q 2931 441 3284 734 
Q 3638 1028 3763 1606 
z
" transform="scale(0.015625)"/>
      </defs>
      <use xlink:href="#ArialMT-41"/>
      <use xlink:href="#ArialMT-43" x="66.699219"/>
      <use xlink:href="#ArialMT-46" x="138.916016"/>
     </g>
    </g>
   </g>
   <g id="PolyCollection_1">
    <path d="M 130.219384 329.800821 
L 130.219384 390.919179 
L 155.373403 407.044275 
L 172.14275 414.563073 
L 188.912096 418.136092 
L 205.681443 419.97491 
L 222.450789 420.745772 
L 239.220135 420.967036 
L 255.989482 420.989918 
L 272.758828 420.994326 
L 289.528174 420.995096 
L 306.297521 421.007545 
L 323.066867 421.016808 
L 339.836213 421.031125 
L 356.60556 421.041381 
L 373.374906 421.045976 
L 398.528926 421.045998 
L 398.528926 299.674002 
L 398.528926 299.674002 
L 373.374906 299.674024 
L 356.60556 299.678619 
L 339.836213 299.688875 
L 323.066867 299.703192 
L 306.297521 299.712455 
L 289.528174 299.724904 
L 272.758828 299.725674 
L 255.989482 299.730082 
L 239.220135 299.752964 
L 222.450789 299.974228 
L 205.681443 300.74509 
L 188.912096 302.583908 
L 172.14275 306.156927 
L 155.373403 313.675725 
L 130.219384 329.800821 
z
" clip-path="url(#pe80e64e1ff)" style="fill: #348abd; fill-opacity: 0.25"/>
   </g>
   <g id="LineCollection_1">
    <path d="M 121.834711 360.36 
L 121.834711 272.16 
" clip-path="url(#pe80e64e1ff)" style="fill: none; stroke: #348abd; stroke-width: 2"/>
    <path d="M 138.604057 360.36 
L 138.604057 288.333237 
" clip-path="url(#pe80e64e1ff)" style="fill: none; stroke: #348abd; stroke-width: 2"/>
    <path d="M 155.373403 360.36 
L 155.373403 304.15118 
" clip-path="url(#pe80e64e1ff)" style="fill: none; stroke: #348abd; stroke-width: 2"/>
    <path d="M 172.14275 360.36 
L 172.14275 319.537635 
" clip-path="url(#pe80e64e1ff)" style="fill: none; stroke: #348abd; stroke-width: 2"/>
    <path d="M 188.912096 360.36 
L 188.912096 330.375373 
" clip-path="url(#pe80e64e1ff)" style="fill: none; stroke: #348abd; stroke-width: 2"/>
    <path d="M 205.681443 360.36 
L 205.681443 340.73128 
" clip-path="url(#pe80e64e1ff)" style="fill: none; stroke: #348abd; stroke-width: 2"/>
    <path d="M 222.450789 360.36 
L 222.450789 349.800407 
" clip-path="url(#pe80e64e1ff)" style="fill: none; stroke: #348abd; stroke-width: 2"/>
    <path d="M 239.220135 360.36 
L 239.220135 356.960766 
" clip-path="url(#pe80e64e1ff)" style="fill: none; stroke: #348abd; stroke-width: 2"/>
    <path d="M 255.989482 360.36 
L 255.989482 358.867999 
" clip-path="url(#pe80e64e1ff)" style="fill: none; stroke: #348abd; stroke-width: 2"/>
    <path d="M 272.758828 360.36 
L 272.758828 359.736009 
" clip-path="url(#pe80e64e1ff)" style="fill: none; stroke: #348abd; stroke-width: 2"/>
    <path d="M 289.528174 360.36 
L 289.528174 357.852302 
" clip-path="url(#pe80e64e1ff)" style="fill: none; stroke: #348abd; stroke-width: 2"/>
    <path d="M 306.297521 360.36 
L 306.297521 358.196633 
" clip-path="url(#pe80e64e1ff)" style="fill: none; stroke: #348abd; stroke-width: 2"/>
    <path d="M 323.066867 360.36 
L 323.066867 357.670299 
" clip-path="url(#pe80e64e1ff)" style="fill: none; stroke: #348abd; stroke-width: 2"/>
    <path d="M 339.836213 360.36 
L 339.836213 358.083117 
" clip-path="url(#pe80e64e1ff)" style="fill: none; stroke: #348abd; stroke-width: 2"/>
    <path d="M 356.60556 360.36 
L 356.60556 358.835974 
" clip-path="url(#pe80e64e1ff)" style="fill: none; stroke: #348abd; stroke-width: 2"/>
    <path d="M 373.374906 360.36 
L 373.374906 360.254656 
" clip-path="url(#pe80e64e1ff)" style="fill: none; stroke: #348abd; stroke-width: 2"/>
    <path d="M 390.144252 360.36 
L 390.144252 364.874819 
" clip-path="url(#pe80e64e1ff)" style="fill: none; stroke: #348abd; stroke-width: 2"/>
   </g>
   <g id="line2d_60">
    <path d="M 108 360.36 
L 412.363636 360.36 
" clip-path="url(#pe80e64e1ff)" style="fill: none; stroke: #348abd; stroke-width: 2; stroke-linecap: round"/>
   </g>
   <g id="line2d_61">
    <defs>
     <path id="m7e69b6762a" d="M 0 2.5 
C 0.663008 2.5 1.29895 2.236584 1.767767 1.767767 
C 2.236584 1.29895 2.5 0.663008 2.5 0 
C 2.5 -0.663008 2.236584 -1.29895 1.767767 -1.767767 
C 1.29895 -2.236584 0.663008 -2.5 0 -2.5 
C -0.663008 -2.5 -1.29895 -2.236584 -1.767767 -1.767767 
C -2.236584 -1.29895 -2.5 -0.663008 -2.5 0 
C -2.5 0.663008 -2.236584 1.29895 -1.767767 1.767767 
C -1.29895 2.236584 -0.663008 2.5 0 2.5 
z
" style="stroke: #348abd"/>
    </defs>
    <g clip-path="url(#pe80e64e1ff)">
     <use xlink:href="#m7e69b6762a" x="121.834711" y="272.16" style="fill: #348abd; stroke: #348abd"/>
     <use xlink:href="#m7e69b6762a" x="138.604057" y="288.333237" style="fill: #348abd; stroke: #348abd"/>
     <use xlink:href="#m7e69b6762a" x="155.373403" y="304.15118" style="fill: #348abd; stroke: #348abd"/>
     <use xlink:href="#m7e69b6762a" x="172.14275" y="319.537635" style="fill: #348abd; stroke: #348abd"/>
     <use xlink:href="#m7e69b6762a" x="188.912096" y="330.375373" style="fill: #348abd; stroke: #348abd"/>
     <use xlink:href="#m7e69b6762a" x="205.681443" y="340.73128" style="fill: #348abd; stroke: #348abd"/>
     <use xlink:href="#m7e69b6762a" x="222.450789" y="349.800407" style="fill: #348abd; stroke: #348abd"/>
     <use xlink:href="#m7e69b6762a" x="239.220135" y="356.960766" style="fill: #348abd; stroke: #348abd"/>
     <use xlink:href="#m7e69b6762a" x="255.989482" y="358.867999" style="fill: #348abd; stroke: #348abd"/>
     <use xlink:href="#m7e69b6762a" x="272.758828" y="359.736009" style="fill: #348abd; stroke: #348abd"/>
     <use xlink:href="#m7e69b6762a" x="289.528174" y="357.852302" style="fill: #348abd; stroke: #348abd"/>
     <use xlink:href="#m7e69b6762a" x="306.297521" y="358.196633" style="fill: #348abd; stroke: #348abd"/>
     <use xlink:href="#m7e69b6762a" x="323.066867" y="357.670299" style="fill: #348abd; stroke: #348abd"/>
     <use xlink:href="#m7e69b6762a" x="339.836213" y="358.083117" style="fill: #348abd; stroke: #348abd"/>
     <use xlink:href="#m7e69b6762a" x="356.60556" y="358.835974" style="fill: #348abd; stroke: #348abd"/>
     <use xlink:href="#m7e69b6762a" x="373.374906" y="360.254656" style="fill: #348abd; stroke: #348abd"/>
     <use xlink:href="#m7e69b6762a" x="390.144252" y="364.874819" style="fill: #348abd; stroke: #348abd"/>
    </g>
   </g>
   <g id="patch_8">
    <path d="M 108 448.56 
L 108 272.16 
" style="fill: none"/>
   </g>
   <g id="patch_9">
    <path d="M 412.363636 448.56 
L 412.363636 272.16 
" style="fill: none"/>
   </g>
   <g id="patch_10">
    <path d="M 108 448.56 
L 412.363636 448.56 
" style="fill: none"/>
   </g>
   <g id="patch_11">
    <path d="M 108 272.16 
L 412.363636 272.16 
" style="fill: none"/>
   </g>
   <g id="text_34">
    <!-- Autocorrelation -->
    <g style="fill: #262626" transform="translate(211.757318 266.16)scale(0.144 -0.144)">
     <use xlink:href="#ArialMT-41"/>
     <use xlink:href="#ArialMT-75" x="66.699219"/>
     <use xlink:href="#ArialMT-74" x="122.314453"/>
     <use xlink:href="#ArialMT-6f" x="150.097656"/>
     <use xlink:href="#ArialMT-63" x="205.712891"/>
     <use xlink:href="#ArialMT-6f" x="255.712891"/>
     <use xlink:href="#ArialMT-72" x="311.328125"/>
     <use xlink:href="#ArialMT-72" x="344.628906"/>
     <use xlink:href="#ArialMT-65" x="377.929688"/>
     <use xlink:href="#ArialMT-6c" x="433.544922"/>
     <use xlink:href="#ArialMT-61" x="455.761719"/>
     <use xlink:href="#ArialMT-74" x="511.376953"/>
     <use xlink:href="#ArialMT-69" x="539.160156"/>
     <use xlink:href="#ArialMT-6f" x="561.376953"/>
     <use xlink:href="#ArialMT-6e" x="616.992188"/>
    </g>
   </g>
  </g>
  <g id="axes_3">
   <g id="patch_12">
    <path d="M 473.236364 448.56 
L 777.6 448.56 
L 777.6 272.16 
L 473.236364 272.16 
z
" style="fill: #eeeeee"/>
   </g>
   <g id="matplotlib.axis_5">
    <g id="xtick_15">
     <g id="line2d_62">
      <path d="M 487.071074 448.56 
L 487.071074 272.16 
" clip-path="url(#p742cf83413)" style="fill: none; stroke-dasharray: 1.85,0.8; stroke-dashoffset: 0; stroke: #b2b2b2; stroke-width: 0.5"/>
     </g>
     <g id="line2d_63"/>
     <g id="text_35">
      <!-- 0 -->
      <g style="fill: #262626" transform="translate(484.290606 459.217813)scale(0.1 -0.1)">
       <use xlink:href="#ArialMT-30"/>
      </g>
     </g>
    </g>
    <g id="xtick_16">
     <g id="line2d_64">
      <path d="M 537.379113 448.56 
L 537.379113 272.16 
" clip-path="url(#p742cf83413)" style="fill: none; stroke-dasharray: 1.85,0.8; stroke-dashoffset: 0; stroke: #b2b2b2; stroke-width: 0.5"/>
     </g>
     <g id="line2d_65"/>
     <g id="text_36">
      <!-- 1 -->
      <g style="fill: #262626" transform="translate(534.598645 459.217813)scale(0.1 -0.1)">
       <use xlink:href="#ArialMT-31"/>
      </g>
     </g>
    </g>
    <g id="xtick_17">
     <g id="line2d_66">
      <path d="M 587.687153 448.56 
L 587.687153 272.16 
" clip-path="url(#p742cf83413)" style="fill: none; stroke-dasharray: 1.85,0.8; stroke-dashoffset: 0; stroke: #b2b2b2; stroke-width: 0.5"/>
     </g>
     <g id="line2d_67"/>
     <g id="text_37">
      <!-- 2 -->
      <g style="fill: #262626" transform="translate(584.906684 459.217813)scale(0.1 -0.1)">
       <use xlink:href="#ArialMT-32"/>
      </g>
     </g>
    </g>
    <g id="xtick_18">
     <g id="line2d_68">
      <path d="M 637.995192 448.56 
L 637.995192 272.16 
" clip-path="url(#p742cf83413)" style="fill: none; stroke-dasharray: 1.85,0.8; stroke-dashoffset: 0; stroke: #b2b2b2; stroke-width: 0.5"/>
     </g>
     <g id="line2d_69"/>
     <g id="text_38">
      <!-- 3 -->
      <g style="fill: #262626" transform="translate(635.214723 459.217813)scale(0.1 -0.1)">
       <use xlink:href="#ArialMT-33"/>
      </g>
     </g>
    </g>
    <g id="xtick_19">
     <g id="line2d_70">
      <path d="M 688.303231 448.56 
L 688.303231 272.16 
" clip-path="url(#p742cf83413)" style="fill: none; stroke-dasharray: 1.85,0.8; stroke-dashoffset: 0; stroke: #b2b2b2; stroke-width: 0.5"/>
     </g>
     <g id="line2d_71"/>
     <g id="text_39">
      <!-- 4 -->
      <g style="fill: #262626" transform="translate(685.522762 459.217813)scale(0.1 -0.1)">
       <use xlink:href="#ArialMT-34"/>
      </g>
     </g>
    </g>
    <g id="xtick_20">
     <g id="line2d_72">
      <path d="M 738.61127 448.56 
L 738.61127 272.16 
" clip-path="url(#p742cf83413)" style="fill: none; stroke-dasharray: 1.85,0.8; stroke-dashoffset: 0; stroke: #b2b2b2; stroke-width: 0.5"/>
     </g>
     <g id="line2d_73"/>
     <g id="text_40">
      <!-- 5 -->
      <g style="fill: #262626" transform="translate(735.830801 459.217813)scale(0.1 -0.1)">
       <use xlink:href="#ArialMT-35"/>
      </g>
     </g>
    </g>
    <g id="text_41">
     <!-- Lags -->
     <g style="fill: #262626" transform="translate(612.408494 473.794688)scale(0.12 -0.12)">
      <use xlink:href="#ArialMT-4c"/>
      <use xlink:href="#ArialMT-61" x="55.615234"/>
      <use xlink:href="#ArialMT-67" x="111.230469"/>
      <use xlink:href="#ArialMT-73" x="166.845703"/>
     </g>
    </g>
   </g>
   <g id="matplotlib.axis_6">
    <g id="ytick_16">
     <g id="line2d_74">
      <path d="M 473.236364 448.56 
L 777.6 448.56 
" clip-path="url(#p742cf83413)" style="fill: none; stroke-dasharray: 1.85,0.8; stroke-dashoffset: 0; stroke: #b2b2b2; stroke-width: 0.5"/>
     </g>
     <g id="line2d_75"/>
     <g id="text_42">
      <!-- −1.00 -->
      <g style="fill: #262626" transform="translate(444.434801 452.138906)scale(0.1 -0.1)">
       <use xlink:href="#ArialMT-2212"/>
       <use xlink:href="#ArialMT-31" x="58.398438"/>
       <use xlink:href="#ArialMT-2e" x="114.013672"/>
       <use xlink:href="#ArialMT-30" x="141.796875"/>
       <use xlink:href="#ArialMT-30" x="197.412109"/>
      </g>
     </g>
    </g>
    <g id="ytick_17">
     <g id="line2d_76">
      <path d="M 473.236364 426.51 
L 777.6 426.51 
" clip-path="url(#p742cf83413)" style="fill: none; stroke-dasharray: 1.85,0.8; stroke-dashoffset: 0; stroke: #b2b2b2; stroke-width: 0.5"/>
     </g>
     <g id="line2d_77"/>
     <g id="text_43">
      <!-- −0.75 -->
      <g style="fill: #262626" transform="translate(444.434801 430.088906)scale(0.1 -0.1)">
       <use xlink:href="#ArialMT-2212"/>
       <use xlink:href="#ArialMT-30" x="58.398438"/>
       <use xlink:href="#ArialMT-2e" x="114.013672"/>
       <use xlink:href="#ArialMT-37" x="141.796875"/>
       <use xlink:href="#ArialMT-35" x="197.412109"/>
      </g>
     </g>
    </g>
    <g id="ytick_18">
     <g id="line2d_78">
      <path d="M 473.236364 404.46 
L 777.6 404.46 
" clip-path="url(#p742cf83413)" style="fill: none; stroke-dasharray: 1.85,0.8; stroke-dashoffset: 0; stroke: #b2b2b2; stroke-width: 0.5"/>
     </g>
     <g id="line2d_79"/>
     <g id="text_44">
      <!-- −0.50 -->
      <g style="fill: #262626" transform="translate(444.434801 408.038906)scale(0.1 -0.1)">
       <use xlink:href="#ArialMT-2212"/>
       <use xlink:href="#ArialMT-30" x="58.398438"/>
       <use xlink:href="#ArialMT-2e" x="114.013672"/>
       <use xlink:href="#ArialMT-35" x="141.796875"/>
       <use xlink:href="#ArialMT-30" x="197.412109"/>
      </g>
     </g>
    </g>
    <g id="ytick_19">
     <g id="line2d_80">
      <path d="M 473.236364 382.41 
L 777.6 382.41 
" clip-path="url(#p742cf83413)" style="fill: none; stroke-dasharray: 1.85,0.8; stroke-dashoffset: 0; stroke: #b2b2b2; stroke-width: 0.5"/>
     </g>
     <g id="line2d_81"/>
     <g id="text_45">
      <!-- −0.25 -->
      <g style="fill: #262626" transform="translate(444.434801 385.988906)scale(0.1 -0.1)">
       <use xlink:href="#ArialMT-2212"/>
       <use xlink:href="#ArialMT-30" x="58.398438"/>
       <use xlink:href="#ArialMT-2e" x="114.013672"/>
       <use xlink:href="#ArialMT-32" x="141.796875"/>
       <use xlink:href="#ArialMT-35" x="197.412109"/>
      </g>
     </g>
    </g>
    <g id="ytick_20">
     <g id="line2d_82">
      <path d="M 473.236364 360.36 
L 777.6 360.36 
" clip-path="url(#p742cf83413)" style="fill: none; stroke-dasharray: 1.85,0.8; stroke-dashoffset: 0; stroke: #b2b2b2; stroke-width: 0.5"/>
     </g>
     <g id="line2d_83"/>
     <g id="text_46">
      <!-- 0.00 -->
      <g style="fill: #262626" transform="translate(450.275426 363.938906)scale(0.1 -0.1)">
       <use xlink:href="#ArialMT-30"/>
       <use xlink:href="#ArialMT-2e" x="55.615234"/>
       <use xlink:href="#ArialMT-30" x="83.398438"/>
       <use xlink:href="#ArialMT-30" x="139.013672"/>
      </g>
     </g>
    </g>
    <g id="ytick_21">
     <g id="line2d_84">
      <path d="M 473.236364 338.31 
L 777.6 338.31 
" clip-path="url(#p742cf83413)" style="fill: none; stroke-dasharray: 1.85,0.8; stroke-dashoffset: 0; stroke: #b2b2b2; stroke-width: 0.5"/>
     </g>
     <g id="line2d_85"/>
     <g id="text_47">
      <!-- 0.25 -->
      <g style="fill: #262626" transform="translate(450.275426 341.888906)scale(0.1 -0.1)">
       <use xlink:href="#ArialMT-30"/>
       <use xlink:href="#ArialMT-2e" x="55.615234"/>
       <use xlink:href="#ArialMT-32" x="83.398438"/>
       <use xlink:href="#ArialMT-35" x="139.013672"/>
      </g>
     </g>
    </g>
    <g id="ytick_22">
     <g id="line2d_86">
      <path d="M 473.236364 316.26 
L 777.6 316.26 
" clip-path="url(#p742cf83413)" style="fill: none; stroke-dasharray: 1.85,0.8; stroke-dashoffset: 0; stroke: #b2b2b2; stroke-width: 0.5"/>
     </g>
     <g id="line2d_87"/>
     <g id="text_48">
      <!-- 0.50 -->
      <g style="fill: #262626" transform="translate(450.275426 319.838906)scale(0.1 -0.1)">
       <use xlink:href="#ArialMT-30"/>
       <use xlink:href="#ArialMT-2e" x="55.615234"/>
       <use xlink:href="#ArialMT-35" x="83.398438"/>
       <use xlink:href="#ArialMT-30" x="139.013672"/>
      </g>
     </g>
    </g>
    <g id="ytick_23">
     <g id="line2d_88">
      <path d="M 473.236364 294.21 
L 777.6 294.21 
" clip-path="url(#p742cf83413)" style="fill: none; stroke-dasharray: 1.85,0.8; stroke-dashoffset: 0; stroke: #b2b2b2; stroke-width: 0.5"/>
     </g>
     <g id="line2d_89"/>
     <g id="text_49">
      <!-- 0.75 -->
      <g style="fill: #262626" transform="translate(450.275426 297.788906)scale(0.1 -0.1)">
       <use xlink:href="#ArialMT-30"/>
       <use xlink:href="#ArialMT-2e" x="55.615234"/>
       <use xlink:href="#ArialMT-37" x="83.398438"/>
       <use xlink:href="#ArialMT-35" x="139.013672"/>
      </g>
     </g>
    </g>
    <g id="ytick_24">
     <g id="line2d_90">
      <path d="M 473.236364 272.16 
L 777.6 272.16 
" clip-path="url(#p742cf83413)" style="fill: none; stroke-dasharray: 1.85,0.8; stroke-dashoffset: 0; stroke: #b2b2b2; stroke-width: 0.5"/>
     </g>
     <g id="line2d_91"/>
     <g id="text_50">
      <!-- 1.00 -->
      <g style="fill: #262626" transform="translate(450.275426 275.738906)scale(0.1 -0.1)">
       <use xlink:href="#ArialMT-31"/>
       <use xlink:href="#ArialMT-2e" x="55.615234"/>
       <use xlink:href="#ArialMT-30" x="83.398438"/>
       <use xlink:href="#ArialMT-30" x="139.013672"/>
      </g>
     </g>
    </g>
    <g id="text_51">
     <!-- Partial ACF -->
     <g style="fill: #262626" transform="translate(438.049801 390.703125)rotate(-90)scale(0.12 -0.12)">
      <use xlink:href="#ArialMT-50"/>
      <use xlink:href="#ArialMT-61" x="66.699219"/>
      <use xlink:href="#ArialMT-72" x="122.314453"/>
      <use xlink:href="#ArialMT-74" x="155.615234"/>
      <use xlink:href="#ArialMT-69" x="183.398438"/>
      <use xlink:href="#ArialMT-61" x="205.615234"/>
      <use xlink:href="#ArialMT-6c" x="261.230469"/>
      <use xlink:href="#ArialMT-20" x="283.447266"/>
      <use xlink:href="#ArialMT-41" x="305.730469"/>
      <use xlink:href="#ArialMT-43" x="372.429688"/>
      <use xlink:href="#ArialMT-46" x="444.646484"/>
     </g>
    </g>
   </g>
   <g id="PolyCollection_2">
    <path d="M 512.225094 329.800821 
L 512.225094 390.919179 
L 587.687153 390.919179 
L 637.995192 390.919179 
L 688.303231 390.919179 
L 763.765289 390.919179 
L 763.765289 329.800821 
L 763.765289 329.800821 
L 688.303231 329.800821 
L 637.995192 329.800821 
L 587.687153 329.800821 
L 512.225094 329.800821 
z
" clip-path="url(#p742cf83413)" style="fill: #348abd; fill-opacity: 0.25"/>
   </g>
   <g id="LineCollection_2">
    <path d="M 487.071074 360.36 
L 487.071074 272.16 
" clip-path="url(#p742cf83413)" style="fill: none; stroke: #348abd; stroke-width: 2"/>
    <path d="M 537.379113 360.36 
L 537.379113 288.333237 
" clip-path="url(#p742cf83413)" style="fill: none; stroke: #348abd; stroke-width: 2"/>
    <path d="M 587.687153 360.36 
L 587.687153 368.196301 
" clip-path="url(#p742cf83413)" style="fill: none; stroke: #348abd; stroke-width: 2"/>
    <path d="M 637.995192 360.36 
L 637.995192 368.706251 
" clip-path="url(#p742cf83413)" style="fill: none; stroke: #348abd; stroke-width: 2"/>
    <path d="M 688.303231 360.36 
L 688.303231 356.972681 
" clip-path="url(#p742cf83413)" style="fill: none; stroke: #348abd; stroke-width: 2"/>
    <path d="M 738.61127 360.36 
L 738.61127 367.243635 
" clip-path="url(#p742cf83413)" style="fill: none; stroke: #348abd; stroke-width: 2"/>
   </g>
   <g id="line2d_92">
    <path d="M 473.236364 360.36 
L 777.6 360.36 
" clip-path="url(#p742cf83413)" style="fill: none; stroke: #348abd; stroke-width: 2; stroke-linecap: round"/>
   </g>
   <g id="line2d_93">
    <g clip-path="url(#p742cf83413)">
     <use xlink:href="#m7e69b6762a" x="487.071074" y="272.16" style="fill: #348abd; stroke: #348abd"/>
     <use xlink:href="#m7e69b6762a" x="537.379113" y="288.333237" style="fill: #348abd; stroke: #348abd"/>
     <use xlink:href="#m7e69b6762a" x="587.687153" y="368.196301" style="fill: #348abd; stroke: #348abd"/>
     <use xlink:href="#m7e69b6762a" x="637.995192" y="368.706251" style="fill: #348abd; stroke: #348abd"/>
     <use xlink:href="#m7e69b6762a" x="688.303231" y="356.972681" style="fill: #348abd; stroke: #348abd"/>
     <use xlink:href="#m7e69b6762a" x="738.61127" y="367.243635" style="fill: #348abd; stroke: #348abd"/>
    </g>
   </g>
   <g id="patch_13">
    <path d="M 473.236364 448.56 
L 473.236364 272.16 
" style="fill: none"/>
   </g>
   <g id="patch_14">
    <path d="M 777.6 448.56 
L 777.6 272.16 
" style="fill: none"/>
   </g>
   <g id="patch_15">
    <path d="M 473.236364 448.56 
L 777.6 448.56 
" style="fill: none"/>
   </g>
   <g id="patch_16">
    <path d="M 473.236364 272.16 
L 777.6 272.16 
" style="fill: none"/>
   </g>
   <g id="text_52">
    <!-- Partial Autocorrelation -->
    <g style="fill: #262626" transform="translate(554.981932 266.16)scale(0.144 -0.144)">
     <use xlink:href="#ArialMT-50"/>
     <use xlink:href="#ArialMT-61" x="66.699219"/>
     <use xlink:href="#ArialMT-72" x="122.314453"/>
     <use xlink:href="#ArialMT-74" x="155.615234"/>
     <use xlink:href="#ArialMT-69" x="183.398438"/>
     <use xlink:href="#ArialMT-61" x="205.615234"/>
     <use xlink:href="#ArialMT-6c" x="261.230469"/>
     <use xlink:href="#ArialMT-20" x="283.447266"/>
     <use xlink:href="#ArialMT-41" x="305.730469"/>
     <use xlink:href="#ArialMT-75" x="372.429688"/>
     <use xlink:href="#ArialMT-74" x="428.044922"/>
     <use xlink:href="#ArialMT-6f" x="455.828125"/>
     <use xlink:href="#ArialMT-63" x="511.443359"/>
     <use xlink:href="#ArialMT-6f" x="561.443359"/>
     <use xlink:href="#ArialMT-72" x="617.058594"/>
     <use xlink:href="#ArialMT-72" x="650.359375"/>
     <use xlink:href="#ArialMT-65" x="683.660156"/>
     <use xlink:href="#ArialMT-6c" x="739.275391"/>
     <use xlink:href="#ArialMT-61" x="761.492188"/>
     <use xlink:href="#ArialMT-74" x="817.107422"/>
     <use xlink:href="#ArialMT-69" x="844.890625"/>
     <use xlink:href="#ArialMT-6f" x="867.107422"/>
     <use xlink:href="#ArialMT-6e" x="922.722656"/>
    </g>
   </g>
  </g>
 </g>
 <defs>
  <clipPath id="p603bbc2ed6">
   <rect x="108" y="60.48" width="669.6" height="176.4"/>
  </clipPath>
  <clipPath id="pe80e64e1ff">
   <rect x="108" y="272.16" width="304.363636" height="176.4"/>
  </clipPath>
  <clipPath id="p742cf83413">
   <rect x="473.236364" y="272.16" width="304.363636" height="176.4"/>
  </clipPath>
 </defs>
</svg>
